File Name

The Killer Inside Me 2010 544p BRRip H264.mp4

File Size
Format : MPEG-4
Format profile : Base Media
Codec ID : isom
File size : 2.02 GiB
Duration : 1h 49mn
Overall bit rate : 2 643 Kbps

Video
ID : 1
Format : AVC
Format/Info : Advanced Video Codec
Format profile : High@L4.1
Format settings, CABAC : Yes
Format settings, ReFrames : 3 frames
Codec ID : avc1
Codec ID/Info : Advanced Video Coding
Duration : 1h 49mn
Bit rate mode : Variable
Bit rate : 2 000 Kbps
Maximum bit rate : 8 889 Kbps
Width : 1 280 pixels
Height : 544 pixels
Display aspect ratio : 2.35:1
Frame rate mode : Constant
Frame rate : 23.976 fps
Resolution : 24 bits
Colorimetry : 4:2:0
Scan type : Progressive
Bits/(Pixel*Frame) : 0.120
Stream size : 1.53 GiB (76%)

Audio #1
ID : 2
Format : AAC
Format/Info : Advanced Audio Codec
Format version : Version 4
Format profile : LC
Format settings, SBR : No
Codec ID : 40
Duration : 1h 49mn
Bit rate mode : Variable
Bit rate : 192 Kbps
Maximum bit rate : 198 Kbps
Channel(s) : 2 channels
Channel positions : L R
Sampling rate : 48.0 KHz
Resolution : 16 bits
Stream size : 149 MiB (7%)

Audio #2
ID : 3
Format : AAC
Format/Info : Advanced Audio Codec
Format version : Version 4
Format profile : LC
Format settings, SBR : No
Codec ID : 40
Duration : 1h 49mn
Bit rate mode : Variable
Bit rate : 448 Kbps
Maximum bit rate : 458 Kbps
Channel(s) : 6 channels
Channel positions : Front: L C R, Rear: L R, LFE
Sampling rate : 48.0 KHz
Resolution : 16 bits
Stream size : 350 MiB (17%)

English SRT : ----

Language : English


 
http://www.imdb.com/title/tt0954947/

Release Date: 8 June 2010 (UK) 

Genre: Crime | Drama | Thriller | Western 

Plot: A West Texas deputy sheriff is slowly unmasked as a psychotic killer.

Cast: 
Casey Affleck ... Lou Ford
Kate Hudson ... Amy Stanton
Jessica Alba ... Joyce Lakeland
Ned Beatty ... Chester Conway
Elias Koteas ... Joe Rothman
Tom Bower ... Sheriff Bob Maples
Simon Baker ... Howard Hendricks
Bill Pullman ... Billy Boy Walker
Brent Briscoe ... Bum / The Stranger / Visitor
Matthew Maher ... Deputy Jeff Plummer
Liam Aiken ... Johnnie Pappas
Jay R. Ferguson ... Elmer Conway
Blake Brigham ... Young Lou Ford
Noah Crawford ... Young Mike
Michael Gibbons ... Turnkey
Zach Josse ... 14 year old Lou Ford
Blake Lindsley ... Max's Diner Waitress
Rosa Pasquarella ... Nurse


 
http://thepiratebay.org/user/hiest



Screenshots:
 
http://www.imagebam.com/image/416b1394406874
 
http://www.imagebam.com/image/43c79994406910
 
http://www.imagebam.com/image/abb4ec94406924
 
http://www.imagebam.com/image/e55f7694406942
 
http://www.imagebam.com/image/fcb2f694406960
 
http://www.imagebam.com/image/418a4694406982
 
http://www.imagebam.com/image/501d6394407013
 
http://www.imagebam.com/image/2ebd2094407036

ttp://www.imagebam.com/image/14a73894407064